<mxfile host="app.diagrams.net" agent="Mozilla/5.0 (Windows NT 10.0; Win64; x64) AppleWebKit/537.36 (KHTML, like Gecko) Chrome/139.0.0.0 Safari/537.36 Edg/139.0.0.0" version="28.1.0">
  <diagram name="Trang-1" id="7mNAN81JYyDYD3jnTQ_f">
    <mxGraphModel dx="1034" dy="666" grid="0" gridSize="10" guides="1" tooltips="1" connect="1" arrows="1" fold="1" page="1" pageScale="1" pageWidth="827" pageHeight="1169" math="0" shadow="0">
      <root>
        <mxCell id="0" />
        <mxCell id="1" parent="0" />
        <mxCell id="I7EPeduyy0rPceX-OVld-1" value="Master node" style="whiteSpace=wrap;html=1;aspect=fixed;" parent="1" vertex="1">
          <mxGeometry x="100" y="431" width="80" height="80" as="geometry" />
        </mxCell>
        <mxCell id="I7EPeduyy0rPceX-OVld-2" value="Infra node" style="whiteSpace=wrap;html=1;aspect=fixed;" parent="1" vertex="1">
          <mxGeometry x="220" y="431" width="80" height="80" as="geometry" />
        </mxCell>
        <mxCell id="I7EPeduyy0rPceX-OVld-3" value="Worker node" style="whiteSpace=wrap;html=1;aspect=fixed;" parent="1" vertex="1">
          <mxGeometry x="340" y="431" width="80" height="80" as="geometry" />
        </mxCell>
        <mxCell id="I7EPeduyy0rPceX-OVld-4" value="" style="endArrow=none;html=1;rounded=0;fillColor=#dae8fc;strokeColor=#6c8ebf;" parent="1" edge="1">
          <mxGeometry width="50" height="50" relative="1" as="geometry">
            <mxPoint x="150" y="401" as="sourcePoint" />
            <mxPoint x="390" y="401" as="targetPoint" />
          </mxGeometry>
        </mxCell>
        <mxCell id="I7EPeduyy0rPceX-OVld-5" value="" style="endArrow=none;html=1;rounded=0;entryX=0.625;entryY=-0.025;entryDx=0;entryDy=0;entryPerimeter=0;fillColor=#dae8fc;strokeColor=#6c8ebf;" parent="1" target="I7EPeduyy0rPceX-OVld-1" edge="1">
          <mxGeometry width="50" height="50" relative="1" as="geometry">
            <mxPoint x="150" y="401" as="sourcePoint" />
            <mxPoint x="340" y="311" as="targetPoint" />
          </mxGeometry>
        </mxCell>
        <mxCell id="I7EPeduyy0rPceX-OVld-6" value="" style="endArrow=none;html=1;rounded=0;entryX=0.625;entryY=0;entryDx=0;entryDy=0;entryPerimeter=0;fillColor=#dae8fc;strokeColor=#6c8ebf;" parent="1" target="I7EPeduyy0rPceX-OVld-2" edge="1">
          <mxGeometry width="50" height="50" relative="1" as="geometry">
            <mxPoint x="270" y="401" as="sourcePoint" />
            <mxPoint x="160" y="439" as="targetPoint" />
          </mxGeometry>
        </mxCell>
        <mxCell id="I7EPeduyy0rPceX-OVld-7" value="" style="endArrow=none;html=1;rounded=0;entryX=0.613;entryY=-0.031;entryDx=0;entryDy=0;entryPerimeter=0;fillColor=#dae8fc;strokeColor=#6c8ebf;" parent="1" target="I7EPeduyy0rPceX-OVld-3" edge="1">
          <mxGeometry width="50" height="50" relative="1" as="geometry">
            <mxPoint x="389" y="401" as="sourcePoint" />
            <mxPoint x="280" y="441" as="targetPoint" />
          </mxGeometry>
        </mxCell>
        <mxCell id="I7EPeduyy0rPceX-OVld-8" value="" style="endArrow=none;html=1;rounded=0;fillColor=#dae8fc;strokeColor=#6c8ebf;" parent="1" edge="1">
          <mxGeometry width="50" height="50" relative="1" as="geometry">
            <mxPoint x="390" y="401" as="sourcePoint" />
            <mxPoint x="720" y="401" as="targetPoint" />
          </mxGeometry>
        </mxCell>
        <mxCell id="I7EPeduyy0rPceX-OVld-9" value="OVNKubernet" style="text;html=1;align=center;verticalAlign=middle;whiteSpace=wrap;rounded=0;" parent="1" vertex="1">
          <mxGeometry x="660" y="371" width="60" height="30" as="geometry" />
        </mxCell>
        <mxCell id="I7EPeduyy0rPceX-OVld-10" value="" style="endArrow=none;html=1;rounded=0;fillColor=#d5e8d4;strokeColor=#82b366;entryX=1;entryY=1;entryDx=0;entryDy=0;" parent="1" edge="1" target="I7EPeduyy0rPceX-OVld-11">
          <mxGeometry width="50" height="50" relative="1" as="geometry">
            <mxPoint x="100" y="231" as="sourcePoint" />
            <mxPoint x="620" y="231" as="targetPoint" />
          </mxGeometry>
        </mxCell>
        <mxCell id="I7EPeduyy0rPceX-OVld-11" value="VLAN 200" style="text;html=1;align=center;verticalAlign=middle;whiteSpace=wrap;rounded=0;" parent="1" vertex="1">
          <mxGeometry x="660" y="201" width="60" height="30" as="geometry" />
        </mxCell>
        <mxCell id="I7EPeduyy0rPceX-OVld-13" value="" style="endArrow=none;html=1;rounded=0;exitX=0.5;exitY=0;exitDx=0;exitDy=0;fillColor=#d5e8d4;strokeColor=#82b366;" parent="1" source="I7EPeduyy0rPceX-OVld-1" edge="1">
          <mxGeometry width="50" height="50" relative="1" as="geometry">
            <mxPoint x="290" y="361" as="sourcePoint" />
            <mxPoint x="140" y="231" as="targetPoint" />
            <Array as="points">
              <mxPoint x="140" y="302" />
            </Array>
          </mxGeometry>
        </mxCell>
        <mxCell id="I7EPeduyy0rPceX-OVld-14" value="6443" style="text;html=1;align=center;verticalAlign=middle;whiteSpace=wrap;rounded=0;rotation=90;" parent="1" vertex="1">
          <mxGeometry x="120" y="311" width="60" height="30" as="geometry" />
        </mxCell>
        <mxCell id="I7EPeduyy0rPceX-OVld-15" value="" style="sketch=0;verticalLabelPosition=bottom;sketch=0;aspect=fixed;html=1;verticalAlign=top;strokeColor=none;fillColor=#000000;align=center;outlineConnect=0;pointerEvents=1;shape=mxgraph.citrix2.zones;" parent="1" vertex="1">
          <mxGeometry x="460" y="261" width="25.86" height="23" as="geometry" />
        </mxCell>
        <mxCell id="I7EPeduyy0rPceX-OVld-20" value="80,443" style="text;html=1;align=center;verticalAlign=middle;whiteSpace=wrap;rounded=0;rotation=90;" parent="1" vertex="1">
          <mxGeometry x="240" y="341" width="60" height="30" as="geometry" />
        </mxCell>
        <mxCell id="I7EPeduyy0rPceX-OVld-21" value="DNS" style="rounded=0;whiteSpace=wrap;html=1;" parent="1" vertex="1">
          <mxGeometry x="260" y="71" width="80" height="40" as="geometry" />
        </mxCell>
        <mxCell id="I7EPeduyy0rPceX-OVld-22" value="NTP" style="rounded=0;whiteSpace=wrap;html=1;" parent="1" vertex="1">
          <mxGeometry x="380" y="71" width="80" height="40" as="geometry" />
        </mxCell>
        <mxCell id="I7EPeduyy0rPceX-OVld-23" value="" style="endArrow=none;html=1;rounded=0;entryX=0.5;entryY=1;entryDx=0;entryDy=0;fillColor=#d5e8d4;strokeColor=#82b366;" parent="1" target="I7EPeduyy0rPceX-OVld-21" edge="1">
          <mxGeometry width="50" height="50" relative="1" as="geometry">
            <mxPoint x="300" y="231" as="sourcePoint" />
            <mxPoint x="340" y="311" as="targetPoint" />
          </mxGeometry>
        </mxCell>
        <mxCell id="I7EPeduyy0rPceX-OVld-24" value="" style="endArrow=none;html=1;rounded=0;entryX=0.5;entryY=1;entryDx=0;entryDy=0;fillColor=#d5e8d4;strokeColor=#82b366;" parent="1" edge="1">
          <mxGeometry width="50" height="50" relative="1" as="geometry">
            <mxPoint x="419.5" y="231" as="sourcePoint" />
            <mxPoint x="419.5" y="111" as="targetPoint" />
          </mxGeometry>
        </mxCell>
        <mxCell id="I7EPeduyy0rPceX-OVld-25" value="LB DMZ" style="text;html=1;align=center;verticalAlign=middle;whiteSpace=wrap;rounded=0;" parent="1" vertex="1">
          <mxGeometry x="442.93000000000006" y="281" width="60" height="30" as="geometry" />
        </mxCell>
        <mxCell id="I7EPeduyy0rPceX-OVld-29" value="Quay" style="rounded=0;whiteSpace=wrap;html=1;" parent="1" vertex="1">
          <mxGeometry x="140" y="71" width="80" height="40" as="geometry" />
        </mxCell>
        <mxCell id="I7EPeduyy0rPceX-OVld-30" value="" style="endArrow=none;html=1;rounded=0;entryX=0.5;entryY=1;entryDx=0;entryDy=0;fillColor=#d5e8d4;strokeColor=#82b366;" parent="1" edge="1">
          <mxGeometry width="50" height="50" relative="1" as="geometry">
            <mxPoint x="179.5" y="231" as="sourcePoint" />
            <mxPoint x="179.5" y="111" as="targetPoint" />
          </mxGeometry>
        </mxCell>
        <mxCell id="I7EPeduyy0rPceX-OVld-31" value="ODF" style="whiteSpace=wrap;html=1;aspect=fixed;" parent="1" vertex="1">
          <mxGeometry x="340" y="551" width="80" height="80" as="geometry" />
        </mxCell>
        <mxCell id="I7EPeduyy0rPceX-OVld-32" value="" style="endArrow=none;html=1;rounded=0;exitX=0;exitY=0.5;exitDx=0;exitDy=0;entryX=0.5;entryY=1;entryDx=0;entryDy=0;" parent="1" source="I7EPeduyy0rPceX-OVld-31" target="I7EPeduyy0rPceX-OVld-2" edge="1">
          <mxGeometry width="50" height="50" relative="1" as="geometry">
            <mxPoint x="210" y="561" as="sourcePoint" />
            <mxPoint x="260" y="511" as="targetPoint" />
            <Array as="points">
              <mxPoint x="260" y="591" />
            </Array>
          </mxGeometry>
        </mxCell>
        <mxCell id="I7EPeduyy0rPceX-OVld-33" value="local disk" style="text;html=1;align=center;verticalAlign=middle;whiteSpace=wrap;rounded=0;rotation=90;" parent="1" vertex="1">
          <mxGeometry x="240" y="536" width="60" height="30" as="geometry" />
        </mxCell>
        <mxCell id="I7EPeduyy0rPceX-OVld-35" value="SAN" style="whiteSpace=wrap;html=1;aspect=fixed;" parent="1" vertex="1">
          <mxGeometry x="540" y="551" width="80" height="80" as="geometry" />
        </mxCell>
        <mxCell id="I7EPeduyy0rPceX-OVld-36" value="" style="endArrow=none;html=1;rounded=0;entryX=0;entryY=0.5;entryDx=0;entryDy=0;" parent="1" target="I7EPeduyy0rPceX-OVld-35" edge="1">
          <mxGeometry width="50" height="50" relative="1" as="geometry">
            <mxPoint x="420" y="591" as="sourcePoint" />
            <mxPoint x="470" y="541" as="targetPoint" />
          </mxGeometry>
        </mxCell>
        <mxCell id="I7EPeduyy0rPceX-OVld-37" value="RBD,CephFs" style="text;html=1;align=center;verticalAlign=middle;whiteSpace=wrap;rounded=0;" parent="1" vertex="1">
          <mxGeometry x="450" y="561" width="60" height="30" as="geometry" />
        </mxCell>
        <mxCell id="I7EPeduyy0rPceX-OVld-39" value="RGW" style="text;html=1;align=center;verticalAlign=middle;whiteSpace=wrap;rounded=0;" parent="1" vertex="1">
          <mxGeometry x="450" y="591" width="60" height="30" as="geometry" />
        </mxCell>
        <mxCell id="egPpqg0AsoduHAp0yX3R-1" value="RDB" style="text;html=1;align=center;verticalAlign=middle;whiteSpace=wrap;rounded=0;" vertex="1" parent="1">
          <mxGeometry x="257" y="597" width="50" height="18" as="geometry" />
        </mxCell>
        <mxCell id="egPpqg0AsoduHAp0yX3R-3" value="" style="endArrow=none;html=1;rounded=0;fillColor=#ffe6cc;strokeColor=#d79b00;exitX=1;exitY=1;exitDx=0;exitDy=0;" edge="1" parent="1" source="egPpqg0AsoduHAp0yX3R-4">
          <mxGeometry width="50" height="50" relative="1" as="geometry">
            <mxPoint x="745.86" y="272" as="sourcePoint" />
            <mxPoint x="485.86" y="272.05798359103824" as="targetPoint" />
          </mxGeometry>
        </mxCell>
        <mxCell id="egPpqg0AsoduHAp0yX3R-4" value="Ingress Vlan 201&amp;nbsp;" style="text;html=1;align=center;verticalAlign=middle;whiteSpace=wrap;rounded=0;" vertex="1" parent="1">
          <mxGeometry x="620" y="251" width="100" height="20" as="geometry" />
        </mxCell>
        <mxCell id="egPpqg0AsoduHAp0yX3R-8" value="" style="endArrow=none;html=1;rounded=0;exitX=0.5;exitY=0;exitDx=0;exitDy=0;fillColor=#d5e8d4;strokeColor=#82b366;" edge="1" parent="1" source="I7EPeduyy0rPceX-OVld-2">
          <mxGeometry width="50" height="50" relative="1" as="geometry">
            <mxPoint x="290" y="361" as="sourcePoint" />
            <mxPoint x="260" y="231" as="targetPoint" />
          </mxGeometry>
        </mxCell>
        <mxCell id="egPpqg0AsoduHAp0yX3R-9" value="" style="endArrow=none;html=1;rounded=0;exitX=0.5;exitY=0;exitDx=0;exitDy=0;fillColor=#d5e8d4;strokeColor=#82b366;" edge="1" parent="1">
          <mxGeometry width="50" height="50" relative="1" as="geometry">
            <mxPoint x="379.5" y="431" as="sourcePoint" />
            <mxPoint x="379.5" y="231" as="targetPoint" />
          </mxGeometry>
        </mxCell>
        <mxCell id="egPpqg0AsoduHAp0yX3R-10" value="" style="sketch=0;points=[[0,0,0],[0.25,0,0],[0.5,0,0],[0.75,0,0],[1,0,0],[0,1,0],[0.25,1,0],[0.5,1,0],[0.75,1,0],[1,1,0],[0,0.25,0],[0,0.5,0],[0,0.75,0],[1,0.25,0],[1,0.5,0],[1,0.75,0]];outlineConnect=0;fontColor=#232F3E;fillColor=#DD344C;strokeColor=#ffffff;dashed=0;verticalLabelPosition=bottom;verticalAlign=top;align=center;html=1;fontSize=12;fontStyle=0;aspect=fixed;shape=mxgraph.aws4.resourceIcon;resIcon=mxgraph.aws4.network_firewall;" vertex="1" parent="1">
          <mxGeometry x="300" y="311" width="40" height="40" as="geometry" />
        </mxCell>
        <mxCell id="egPpqg0AsoduHAp0yX3R-11" value="" style="endArrow=none;html=1;rounded=0;exitX=0.25;exitY=0;exitDx=0;exitDy=0;exitPerimeter=0;fillColor=#d5e8d4;strokeColor=#82b366;" edge="1" parent="1" source="egPpqg0AsoduHAp0yX3R-10">
          <mxGeometry width="50" height="50" relative="1" as="geometry">
            <mxPoint x="290" y="361" as="sourcePoint" />
            <mxPoint x="310" y="231" as="targetPoint" />
          </mxGeometry>
        </mxCell>
        <mxCell id="egPpqg0AsoduHAp0yX3R-13" value="" style="endArrow=none;html=1;rounded=0;exitX=0.75;exitY=0;exitDx=0;exitDy=0;exitPerimeter=0;fillColor=#ffe6cc;strokeColor=#d79b00;" edge="1" parent="1" source="egPpqg0AsoduHAp0yX3R-10">
          <mxGeometry width="50" height="50" relative="1" as="geometry">
            <mxPoint x="290" y="361" as="sourcePoint" />
            <mxPoint x="330" y="271" as="targetPoint" />
          </mxGeometry>
        </mxCell>
        <mxCell id="egPpqg0AsoduHAp0yX3R-14" value="" style="endArrow=none;html=1;rounded=0;fillColor=#ffe6cc;strokeColor=#d79b00;" edge="1" parent="1">
          <mxGeometry width="50" height="50" relative="1" as="geometry">
            <mxPoint x="460" y="271" as="sourcePoint" />
            <mxPoint x="330" y="271" as="targetPoint" />
          </mxGeometry>
        </mxCell>
      </root>
    </mxGraphModel>
  </diagram>
</mxfile>
